# xmcd
#
# Track frame offsets: 
#        150
#        23285
#        46440
#        61225
#        77845
#        94060
#        110740
#        128880
#        144505
#        173950
#        190695
#        214580
#        218705
#        240705
#        258220
#
# Disc length: 3662 seconds
#
# Revision: 0
# Processed by: cddbd v1.5.1PL2 Copyright (c) Steve Scherf et al.
# Submitted via: ExactAudioCopy v0.95b4
#
DISCID=cb0e4c0f
DTITLE=R.L. Burnside - Wish I Was In Heaven Sitting Down
DYEAR=2000
DGENRE=Blues
TTITLE0=Gard Time Killing Floor
TTITLE1=Got Messed Up
TTITLE2=Miss Maybelle
TTITLE3=Wish I Was In Heaven Sitting Down
TTITLE4=Too Many Ups
TTITLE5=Nothin' Man
TTITLE6=See What My Buddy Done
TTITLE7=My Evyes Keep Me In Trouble
TTITLE8=Bad Luck City
TTITLE9=Chain Of Fools
TTITLE10=R.L.'s Story
TTITLE11=Black Mattie
TTITLE12=Pucker Up Buttercup
TTITLE13=Laugh To Keep From Crying,
TTITLE14=Untitled
EXTD=
EXTT0=
EXTT1=
EXTT2=
EXTT3=
EXTT4=
EXTT5=
EXTT6=
EXTT7=
EXTT8=
EXTT9=
EXTT10=
EXTT11=
EXTT12=
EXTT13=
EXTT14=
PLAYORDER=
